<svg xmlns="http://www.w3.org/2000/svg" width="1059" height="175" fill-rule="evenodd" clip-rule="evenodd" image-rendering="optimizeQuality" shape-rendering="geometricPrecision" text-rendering="geometricPrecision" viewBox="0 0 226.98 37.46"><g fill="#3f51b5"><path fill-rule="nonzero" stroke="#3f51b5" stroke-miterlimit="22.926" stroke-width=".43" d="M60.56 27.35c.46 0 .84.15 1.15.47.32.31.47.69.47 1.15 0 .46-.15.85-.47 1.16-.31.31-.69.47-1.15.47H47.61c-.46 0-.84-.16-1.14-.47-.31-.31-.46-.7-.46-1.16V7.8c0-.46.16-.85.47-1.16.31-.31.69-.47 1.13-.47.46 0 .84.16 1.15.47.32.31.47.7.47 1.16v19.55h11.33zm5.53-12.26c0-.48.15-.87.46-1.16.3-.29.68-.44 1.14-.44.48 0 .86.15 1.16.44.29.29.43.68.43 1.16V29c0 .46-.14.84-.43 1.15-.3.3-.68.45-1.16.45a1.54 1.54 0 01-1.6-1.6V15.09zm1.6-8.51c.56 0 1.05.2 1.45.61.41.41.61.89.61 1.45 0 .57-.2 1.05-.61 1.46a2 2 0 01-1.45.61c-.57 0-1.05-.21-1.46-.61-.4-.41-.61-.89-.61-1.46 0-.56.21-1.04.61-1.45.41-.41.89-.61 1.46-.61zm15.14 6.79c2.46 0 4.5.93 6.13 2.81.21.23.31.5.31.81 0 .46-.23.85-.69 1.16a1.2 1.2 0 01-.72.22 1.6 1.6 0 01-1.22-.56 4.91 4.91 0 00-1.7-1.24 5.4 5.4 0 00-2.11-.39 5.1 5.1 0 00-3.91 1.61c-1 1.08-1.5 2.5-1.5 4.27 0 1.13.23 2.13.7 3.02a5.13 5.13 0 001.97 2.08c.84.5 1.81.75 2.89.75 1.42 0 2.57-.36 3.44-1.09.4-.3.79-.44 1.16-.44.29 0 .56.09.81.28.4.33.6.71.6 1.13 0 .31-.13.59-.38.84a7.94 7.94 0 01-5.63 2.1 8.8 8.8 0 01-4.44-1.13 8.07 8.07 0 01-3.08-3.11 8.94 8.94 0 01-1.11-4.43c0-1.67.36-3.16 1.08-4.49a7.74 7.74 0 013.02-3.09 8.64 8.64 0 014.38-1.11zm26.55 8.41c0 .4-.13.72-.41.98-.27.27-.61.4-1.03.4H96.06a5.52 5.52 0 001.98 3.53c1.1.9 2.44 1.35 4.02 1.35a6.1 6.1 0 001.96-.35 6.06 6.06 0 001.67-.84c.29-.23.64-.35 1.03-.35.4 0 .71.11.94.32.38.31.56.66.56 1.06 0 .37-.16.69-.5.94a8.64 8.64 0 01-2.64 1.37 9.35 9.35 0 01-7.62-.58 8.03 8.03 0 01-3.17-3.08 8.74 8.74 0 01-1.14-4.47c0-1.67.36-3.16 1.08-4.49a7.82 7.82 0 013-3.09 8.57 8.57 0 014.36-1.11c1.61 0 3 .35 4.16 1.06a6.98 6.98 0 012.69 2.97c.63 1.27.94 2.73.94 4.38zm-7.79-5.72c-1.52 0-2.75.41-3.7 1.25a5.6 5.6 0 00-1.8 3.34h10.41a5.51 5.51 0 00-1.56-3.34 4.56 4.56 0 00-3.35-1.25zm20.36-2.73c1.44 0 2.74.32 3.88.94a6.58 6.58 0 012.69 2.74c.65 1.2.97 2.64.97 4.33v7.7a1.54 1.54 0 01-1.59 1.59 1.54 1.54 0 01-1.6-1.59v-7.7c0-1.69-.45-2.96-1.36-3.83a5.04 5.04 0 00-3.61-1.3c-.88 0-1.67.18-2.39.53-.72.36-1.29.84-1.69 1.44a3.57 3.57 0 00-.61 2.04v8.82c0 .45-.15.84-.44 1.14-.29.3-.68.45-1.16.45a1.54 1.54 0 01-1.59-1.59V15.09c0-.48.15-.87.45-1.16.3-.29.68-.44 1.14-.44.48 0 .87.15 1.16.44.29.29.44.68.44 1.16v.34a6.96 6.96 0 012.37-1.55 8 8 0 012.94-.55zm18.83.04c1.36 0 2.57.22 3.65.65a6.33 6.33 0 012.55 1.82c.27.33.4.66.4 1 0 .35-.17.68-.53.97a1.5 1.5 0 01-.87.25 2.1 2.1 0 01-1.47-.6 4.79 4.79 0 00-1.66-1.01c-.59-.2-1.29-.3-2.13-.3-.96 0-1.75.16-2.36.48-.62.33-.92.78-.92 1.37 0 .41.1.76.31 1.04s.6.55 1.19.78c.58.24 1.43.48 2.53.71 2.27.46 3.89 1.09 4.83 1.91a3.96 3.96 0 011.43 3.16c0 .95-.26 1.83-.78 2.61a5.28 5.28 0 01-2.3 1.84 8.97 8.97 0 01-3.65.68c-1.42 0-2.75-.22-4-.66a7.7 7.7 0 01-2.94-1.72c-.27-.27-.41-.6-.41-.97 0-.5.21-.91.63-1.22a1.9 1.9 0 011.09-.44c.42 0 .82.19 1.19.56.4.44.99.82 1.78 1.15.8.32 1.64.48 2.54.48 1.19 0 2.11-.2 2.77-.59.65-.4.98-.93.98-1.6 0-.65-.32-1.18-.97-1.61a9.45 9.45 0 00-3.28-1.08c-4.01-.77-6.01-2.42-6.01-4.94 0-1.02.3-1.89.91-2.6.6-.71 1.4-1.24 2.38-1.59a8.97 8.97 0 013.12-.53zm26.34 8.41c0 .4-.14.72-.41.98-.27.27-.61.4-1.03.4h-11.89c.23 1.46.9 2.63 1.99 3.53 1.1.9 2.44 1.35 4.02 1.35a6 6 0 001.95-.35 5.99 5.99 0 001.68-.84 1.6 1.6 0 011.03-.35c.4 0 .71.11.94.32.37.31.56.66.56 1.06 0 .37-.16.69-.5.94a8.64 8.64 0 01-2.64 1.37 9.35 9.35 0 01-7.62-.58 8.03 8.03 0 01-3.17-3.08 8.74 8.74 0 01-1.14-4.47c0-1.67.36-3.16 1.08-4.49a7.76 7.76 0 013-3.09 8.54 8.54 0 014.36-1.11c1.61 0 2.99.35 4.16 1.06a6.98 6.98 0 012.69 2.97c.63 1.27.94 2.73.94 4.38zm-7.79-5.72a5.4 5.4 0 00-3.71 1.25 5.64 5.64 0 00-1.79 3.34h10.41a5.57 5.57 0 00-1.56-3.34 4.57 4.57 0 00-3.35-1.25zm21.27-9.89c1.4 0 2.64.28 3.72.83a6.23 6.23 0 013.47 5.68c0 1.02-.27 1.94-.83 2.75a6.05 6.05 0 01-2.26 1.97c1.41.33 2.53 1 3.34 2 .82 1 1.22 2.28 1.22 3.82 0 1.42-.34 2.69-1.01 3.81a6.9 6.9 0 01-2.85 2.63c-1.22.63-2.6.94-4.14.94h-8.14c-.45 0-.84-.16-1.15-.47-.32-.31-.47-.7-.47-1.16V7.8c0-.48.15-.87.47-1.17.31-.31.7-.46 1.15-.46h7.48zm0 10.04c1.23 0 2.21-.3 2.96-.9a3.22 3.22 0 001.11-2.63c0-1.15-.37-2.02-1.11-2.61-.75-.6-1.73-.9-2.96-.9h-5.85v7.04h5.85zm.66 11.39c1.46 0 2.63-.38 3.53-1.14a4.02 4.02 0 001.35-3.24c0-1.29-.45-2.28-1.33-2.97a5.63 5.63 0 00-3.55-1.03h-6.51v8.38h6.51zm20.3-14.23a8.8 8.8 0 014.42 1.11 7.97 7.97 0 013.07 3.08 8.99 8.99 0 011.11 4.5c0 1.67-.37 3.16-1.1 4.47a7.79 7.79 0 01-3.05 3.08 8.76 8.76 0 01-4.45 1.12 8.9 8.9 0 01-4.48-1.12 7.81 7.81 0 01-3.06-3.08 9.03 9.03 0 01-1.1-4.47c0-1.69.37-3.19 1.1-4.5a7.81 7.81 0 013.06-3.08 9 9 0 014.48-1.11zm0 2.81a5.28 5.28 0 00-4.85 2.85 6.3 6.3 0 00-.72 3.03c0 1.13.24 2.13.72 3.02a5.29 5.29 0 004.85 2.83c1.06 0 2.01-.25 2.86-.75a5.2 5.2 0 001.97-2.08c.47-.89.7-1.89.7-3.02 0-1.12-.23-2.14-.7-3.03a5.19 5.19 0 00-1.97-2.1c-.85-.5-1.8-.75-2.86-.75zm24.77 12.01c.29.31.44.68.44 1.1 0 .37-.14.68-.4.93s-.6.38-1.01.38c-.5 0-.88-.17-1.13-.5l-4.97-5.94-4.72 5.94c-.32.33-.69.5-1.13.5-.42 0-.75-.13-.99-.38a1.3 1.3 0 01-.36-.93c0-.42.15-.81.44-1.16l4.85-6.07-5.16-6.1a1.83 1.83 0 01-.47-1.19c0-.35.12-.65.36-.9s.58-.38 1.02-.38c.5 0 .89.18 1.19.53l5.13 6.13 4.59-6.13c.27-.35.66-.53 1.16-.53.42 0 .75.13.99.39.23.26.35.58.35.96 0 .45-.14.87-.43 1.25l-4.73 6.16 4.98 5.94z"/><path d="M18.73 0a18.74 18.74 0 11-.01 37.47A18.74 18.74 0 0118.73 0zm2.33 20.03l2.48-.84v-2.08l-.02-.77 2.87-.4.09-3.49 2.38-.48-.21-3.37-3.14-.02-6.7 5.92c-1.2 1.09-1.81 1.5-2.27 1.63a6.46 6.46 0 104.52 3.9zm-7.7 2.29a1.88 1.88 0 11-.01 3.75 1.88 1.88 0 01.01-3.75z"/></g></svg>