<svg xmlns="http://www.w3.org/2000/svg" width="1096" height="181" fill-rule="evenodd" viewBox="0 0 313.23 51.7" shape-rendering="geometricPrecision" text-rendering="geometricPrecision" image-rendering="optimizeQuality" clip-rule="evenodd"><defs><style type="text/css"><![CDATA[
    .str0 {stroke:#FEFEFE;stroke-width:0.57;stroke-miterlimit:22.9256}
    .fil1 {fill:#FEFEFE}
    .fil0 {fill:#FEFEFE;fill-rule:nonzero}
   ]]></style></defs><g id="Camada_x0020_1"><path d="M83.57 37.74c.63 0 1.17.22 1.6.65.43.42.65.95.65 1.58 0 .64-.22 1.17-.65 1.6-.43.43-.97.65-1.6.65H65.7c-.63 0-1.16-.22-1.57-.65-.42-.43-.63-.96-.63-1.6V10.76c0-.63.22-1.16.65-1.6.43-.43.95-.64 1.55-.64.63 0 1.17.2 1.6.65.43.43.65.96.65 1.6v26.97h15.62zm7.64-16.92c0-.66.22-1.2.64-1.6.4-.4.94-.6 1.57-.6.68 0 1.2.2 1.6.6.4.4.6.94.6 1.6v19.2c0 .64-.2 1.17-.6 1.58-.4.42-.92.63-1.6.63-.62 0-1.15-.2-1.56-.63-.42-.4-.63-.94-.63-1.57v-19.2zm2.2-11.74c.8 0 1.46.28 2.02.84.56.56.84 1.23.84 2 0 .78-.28 1.45-.84 2.02-.56.56-1.23.84-2 .84-.78 0-1.45-.28-2-.84-.58-.57-.86-1.24-.86-2 0-.8.28-1.46.85-2.02s1.24-.84 2-.84zm20.9 9.37c3.4 0 6.22 1.3 8.47 3.88.28.32.43.7.43 1.12 0 .64-.32 1.17-.95 1.6-.3.2-.62.3-1 .3-.66 0-1.22-.26-1.68-.77-.72-.78-1.5-1.35-2.35-1.7-.85-.37-1.82-.55-2.9-.55-2.23 0-4.03.74-5.4 2.22-1.4 1.5-2.08 3.45-2.08 5.9 0 1.55.32 2.94.97 4.16.66 1.23 1.56 2.2 2.73 2.88 1.16.7 2.5 1.04 4 1.04 1.95 0 3.53-.5 4.74-1.5.55-.42 1.08-.62 1.6-.62.4 0 .77.13 1.12.4.54.45.8.97.8 1.55 0 .43-.16.8-.5 1.16-2.08 1.94-4.67 2.9-7.78 2.9-2.27 0-4.32-.52-6.13-1.55-1.82-1.04-3.24-2.47-4.26-4.3-1.02-1.82-1.53-3.86-1.53-6.1 0-2.3.5-4.37 1.5-6.2s2.38-3.25 4.16-4.27c1.8-1.02 3.8-1.53 6.05-1.53zm36.65 11.6c0 .55-.18 1-.56 1.37-.38.36-.86.54-1.43.54h-16.4c.3 2 1.22 3.64 2.73 4.87 1.52 1.24 3.37 1.86 5.55 1.86.87 0 1.76-.17 2.7-.48.93-.32 1.7-.7 2.3-1.17.4-.32.9-.48 1.43-.48.55 0 .98.15 1.3.44.52.44.78.93.78 1.47 0 .52-.23.95-.7 1.3-.97.78-2.2 1.4-3.64 1.9-1.46.5-2.84.73-4.17.73-2.36 0-4.47-.5-6.34-1.53-1.86-1.02-3.32-2.44-4.37-4.25-1.05-1.8-1.58-3.87-1.58-6.17s.5-4.37 1.5-6.2c.98-1.83 2.36-3.25 4.13-4.27 1.77-1.02 3.78-1.53 6.02-1.53 2.22 0 4.13.48 5.75 1.46 1.6 1 2.84 2.36 3.7 4.1.87 1.77 1.3 3.78 1.3 6.06zm-10.75-7.9c-2.1 0-3.8.58-5.1 1.73-1.32 1.16-2.15 2.7-2.5 4.62H147c-.26-1.92-.98-3.46-2.16-4.62-1.18-1.15-2.72-1.72-4.62-1.72zm28.1-3.75c2 0 3.77.43 5.36 1.3 1.58.86 2.82 2.12 3.7 3.77.9 1.66 1.35 3.65 1.35 5.98v10.62c0 .63-.2 1.16-.62 1.58-.42.4-.94.62-1.57.62-.63 0-1.15-.2-1.57-.62-.42-.42-.63-.95-.63-1.58V29.45c0-2.33-.62-4.1-1.87-5.28-1.26-1.2-2.92-1.8-5-1.8-1.2 0-2.3.25-3.3.74-.98.5-1.76 1.16-2.32 2-.55.83-.83 1.76-.83 2.8v12.17c0 .63-.2 1.16-.6 1.58-.4.4-.94.62-1.6.62-.64 0-1.16-.2-1.58-.62-.43-.42-.64-.95-.64-1.58V20.82c0-.66.2-1.2.63-1.6.4-.4.93-.6 1.57-.6.66 0 1.2.2 1.6.6.4.4.6.94.6 1.6v.48c.92-.93 2-1.64 3.28-2.14 1.26-.5 2.62-.76 4.05-.76zm26 .05c1.86 0 3.54.3 5.02.9 1.48.6 2.65 1.44 3.52 2.5.37.47.56.93.56 1.4 0 .48-.25.92-.74 1.33-.3.23-.72.34-1.2.34-.75 0-1.43-.27-2.03-.82-.72-.66-1.5-1.13-2.3-1.4-.8-.28-1.78-.4-2.93-.4-1.32 0-2.4.2-3.26.66-.84.44-1.27 1.07-1.27 1.87 0 .58.14 1.06.43 1.45.3.4.84.75 1.64 1.08.8.33 1.97.65 3.5.97 3.14.63 5.36 1.5 6.67 2.63 1.32 1.13 1.97 2.58 1.97 4.36 0 1.33-.36 2.53-1.08 3.6-.73 1.1-1.78 1.94-3.18 2.55-1.4.62-3.07.93-5.03.93-1.97 0-3.8-.3-5.53-.9-1.73-.6-3.08-1.4-4.06-2.38-.36-.37-.55-.82-.55-1.34 0-.7.3-1.25.86-1.68.56-.4 1.06-.6 1.52-.6.58 0 1.12.26 1.64.77.55.6 1.37 1.13 2.46 1.58 1.1.44 2.26.67 3.5.67 1.64 0 2.9-.28 3.82-.82.9-.55 1.36-1.28 1.36-2.2 0-.9-.45-1.64-1.34-2.23-.9-.6-2.4-1.08-4.53-1.5-5.53-1.05-8.3-3.32-8.3-6.8 0-1.42.43-2.6 1.26-3.6.83-.97 1.92-1.7 3.27-2.2 1.36-.48 2.8-.72 4.32-.72zm36.33 11.6c0 .55-.18 1-.56 1.37-.37.36-.85.54-1.42.54h-16.4c.3 2 1.23 3.64 2.74 4.87 1.5 1.24 3.35 1.86 5.53 1.86.87 0 1.77-.17 2.7-.48.94-.32 1.7-.7 2.3-1.17.4-.32.9-.48 1.43-.48.55 0 .98.15 1.3.44.52.44.78.93.78 1.47 0 .52-.23.95-.7 1.3-.97.78-2.2 1.4-3.64 1.9-1.45.5-2.84.73-4.17.73-2.36 0-4.47-.5-6.34-1.53-1.88-1.02-3.34-2.44-4.4-4.25-1.04-1.8-1.57-3.87-1.57-6.17s.5-4.37 1.5-6.2c.98-1.83 2.36-3.25 4.13-4.27 1.77-1.02 3.78-1.53 6.03-1.53 2.2 0 4.12.48 5.73 1.46 1.6 1 2.85 2.36 3.7 4.1.87 1.77 1.3 3.78 1.3 6.06zm-10.74-7.9c-2.1 0-3.82.58-5.13 1.73-1.3 1.16-2.14 2.7-2.48 4.62h14.36c-.26-1.92-.98-3.46-2.16-4.62-1.17-1.15-2.7-1.72-4.6-1.72zm29.34-13.63c1.93 0 3.64.38 5.13 1.14 1.5.76 2.67 1.83 3.52 3.2.84 1.36 1.27 2.9 1.27 4.64 0 1.4-.4 2.67-1.15 3.8-.76 1.12-1.8 2.02-3.13 2.7 1.95.47 3.5 1.4 4.6 2.78 1.13 1.38 1.7 3.13 1.7 5.26 0 1.96-.47 3.72-1.4 5.27-.94 1.56-2.25 2.77-3.94 3.64-1.68.86-3.6 1.3-5.72 1.3h-11.22c-.63 0-1.16-.23-1.6-.66-.43-.43-.64-.96-.64-1.6V10.76c0-.66.2-1.2.64-1.62.44-.4.97-.62 1.6-.62h10.32zm0 13.85c1.7 0 3.06-.4 4.08-1.25 1.02-.83 1.53-2.04 1.53-3.62 0-1.6-.5-2.8-1.53-3.6-1.02-.83-2.38-1.24-4.08-1.24h-8.07v9.7h8.07zm.9 15.72c2.02 0 3.64-.54 4.88-1.6 1.24-1.04 1.86-2.53 1.86-4.46 0-1.78-.6-3.15-1.84-4.1-1.22-.95-2.85-1.42-4.9-1.42h-8.97V38.1h8.97zm28.02-19.65c2.27 0 4.3.5 6.1 1.53 1.8 1.02 3.22 2.44 4.24 4.25 1.02 1.8 1.53 3.88 1.53 6.22 0 2.3-.5 4.36-1.5 6.17-1.02 1.8-2.42 3.23-4.22 4.25-1.8 1.02-3.84 1.53-6.14 1.53s-4.36-.5-6.17-1.53c-1.83-1.02-3.24-2.44-4.24-4.25-1-1.8-1.52-3.87-1.52-6.17 0-2.34.5-4.4 1.52-6.22 1-1.8 2.4-3.23 4.23-4.25 1.8-1.02 3.86-1.53 6.16-1.53zm0 3.88c-1.47 0-2.8.35-3.95 1.04-1.16.7-2.07 1.65-2.73 2.9-.66 1.23-1 2.62-1 4.18 0 1.55.34 2.94 1 4.16.66 1.23 1.57 2.2 2.74 2.88 1.17.7 2.5 1.04 3.96 1.04 1.47 0 2.78-.35 3.95-1.04 1.17-.7 2.08-1.65 2.73-2.87.64-1.2.97-2.6.97-4.15 0-1.56-.33-2.95-.97-4.2-.65-1.23-1.56-2.2-2.72-2.88-1.16-.7-2.47-1.04-3.94-1.04zm34.18 16.58c.4.44.6.94.6 1.52 0 .52-.17.95-.53 1.3-.35.34-.82.5-1.4.5-.68 0-1.2-.22-1.55-.68l-6.86-8.2-6.53 8.2c-.43.46-.95.7-1.55.7-.58 0-1.03-.18-1.36-.53-.33-.33-.5-.76-.5-1.28 0-.58.2-1.1.6-1.6l6.7-8.37-7.13-8.42c-.43-.52-.64-1.07-.64-1.64 0-.5.15-.92.48-1.26.33-.35.8-.52 1.4-.52.7 0 1.24.24 1.65.73l7.08 8.46 6.35-8.45c.37-.5.9-.73 1.6-.73.57 0 1.03.18 1.36.54.34.36.5.8.5 1.3 0 .65-.2 1.22-.6 1.74l-6.52 8.5 6.86 8.2z" class="fil0 str0"/><path d="M25.85 0C40.12 0 51.7 11.57 51.7 25.85c0 14.27-11.58 25.85-25.85 25.85C11.57 51.7 0 40.12 0 25.85 0 11.57 11.57 0 25.85 0zm3.2 27.64l3.43-1.15v-2.9l-.02-1.05L36.4 22l.14-4.82 3.3-.66-.3-4.65-4.34-.03-9.24 8.18c-1.66 1.5-2.5 2.06-3.13 2.24-.66-.15-1.34-.23-2.05-.23-4.92 0-8.9 4-8.9 8.9 0 4.93 3.98 8.92 8.9 8.92s8.9-4 8.9-8.9c0-1.18-.2-2.3-.62-3.3zM18.44 30.8c1.43 0 2.6 1.16 2.6 2.6 0 1.42-1.17 2.58-2.6 2.58-1.43 0-2.6-1.16-2.6-2.6 0-1.42 1.17-2.58 2.6-2.58z" class="fil1"/></g></svg>